<?xml version="1.0" encoding="UTF-8" standalone="no"?>
<!-- Created with Inkscape (http://www.inkscape.org/) -->

<svg
   width="16"
   height="16"
   viewBox="0 0 4.2333332 4.2333332"
   version="1.1"
   id="svg5"
   sodipodi:docname="owl_bulb.svg"
   inkscape:version="1.1.1 (c3084ef, 2021-09-22)"
   xmlns:inkscape="http://www.inkscape.org/namespaces/inkscape"
   xmlns:sodipodi="http://sodipodi.sourceforge.net/DTD/sodipodi-0.dtd"
   xmlns="http://www.w3.org/2000/svg"
   xmlns:svg="http://www.w3.org/2000/svg">
  <sodipodi:namedview
     id="namedview7"
     pagecolor="#ffffff"
     bordercolor="#666666"
     borderopacity="1.0"
     inkscape:pageshadow="2"
     inkscape:pageopacity="0.0"
     inkscape:pagecheckerboard="0"
     inkscape:document-units="mm"
     showgrid="true"
     width="16px"
     units="px"
     inkscape:snap-page="true"
     inkscape:zoom="32.329538"
     inkscape:cx="5.6913898"
     inkscape:cy="7.9184553"
     inkscape:window-width="1440"
     inkscape:window-height="900"
     inkscape:window-x="0"
     inkscape:window-y="0"
     inkscape:window-maximized="0"
     inkscape:current-layer="g15399"
     inkscape:snap-grids="false">
    <inkscape:grid
       type="xygrid"
       id="grid7015" />
  </sodipodi:namedview>
  <defs
     id="defs2" />
  <g
     inkscape:label="Layer 1"
     inkscape:groupmode="layer"
     id="layer1"
     style="display:inline" />
  <g
     inkscape:groupmode="layer"
     id="layer2"
     inkscape:label="Layer 2">
    <g
       id="g14573"
       transform="matrix(1.3333333,0,0,1.3333333,-0.7283283,-1.0583333)">
      <g
         id="g15399">
        <path
           id="path139-18"
           style="display:inline;fill:#1a1a1a;stroke:none;stroke-width:0.00774463"
           d="M 2.7148551,2.0462634 2.5252418,2.1756467 C 2.3960486,2.2611472 2.2640883,2.3592635 2.1452716,2.4775408 L 1.897659,2.274543 1.7504298,2.1674672 1.6098929,2.0745196 C 1.4934585,2.0980517 1.440925,2.1236661 1.3399728,2.1600313 v 0.00743 C 1.6840846,2.2797322 1.9139449,2.4840837 2.1452716,2.7095382 2.3690607,2.4289681 2.5756702,2.290487 2.928263,2.1459034 2.8185041,2.0847704 2.8215454,2.0814661 2.7148551,2.0462634 Z M 0.85961911,2.2842095 v 0.154665 L 1.053694,2.4544895 C 0.92633376,2.6333906 0.89493595,2.8854851 0.93174654,3.0969442 1.088274,3.6118417 1.6310497,3.7656707 1.9639864,3.8956996 c 0.1488839,0.090939 0.2451941,0.1036552 0.3807138,0 0.4756932,-0.1913525 0.7943817,-0.237 0.9828662,-0.697626 0.090614,-0.2639839 -0.011993,-0.5299684 -0.089973,-0.7517609 l 0.1702802,-0.00743 V 2.284212 c -0.5023624,0 -1.0671899,0.2738101 -1.2700371,0.758453 C 1.8629901,2.5722361 1.4113149,2.2842095 0.85961911,2.2842095 Z m 2.18315549,0.204485 c 0.00202,-1.775e-4 0.00409,-9.91e-5 0.00595,0 0.00373,1.961e-4 0.00694,0.00127 0.010405,0.00224 0.06023,0.016667 0.094035,0.1435192 0.111537,0.1955619 0.06061,0.1802395 0.060019,0.3859959 -0.028257,0.5576863 C 3.0220962,3.4781925 2.8007714,3.4944919 2.579523,3.5698625 2.4775183,3.6046104 2.3769621,3.6511302 2.2850646,3.7074252 c -0.037453,0.022949 -0.095426,0.08208 -0.1397932,0.084768 -0.027997,0.00171 -0.055673,-0.027206 -0.077333,-0.04164 C 2.0158828,3.7158659 1.9610116,3.6848335 1.9050948,3.6568611 1.6844429,3.5464613 1.3888018,3.5398391 1.2165382,3.3527362 1.0652394,3.1884107 1.0460639,2.9322448 1.1012831,2.7251536 1.1162147,2.6691515 1.1590276,2.5068715 1.2247177,2.4924124 1.2562459,2.4854756 1.3042851,2.51112 1.3325371,2.5236434 1.2734992,2.6562923 1.1989509,2.7481011 1.227692,2.9036131 1.2677013,3.1201293 1.4843265,3.2861433 1.7043278,3.2575577 1.8206672,3.242432 1.9065077,3.1825704 1.9906066,3.1051238 L 2.1378357,3.4769144 2.2768855,3.1125595 c 0.093957,0.065411 0.1736191,0.1376253 0.2944583,0.1464854 0.2437384,0.017867 0.4795943,-0.1811338 0.4796101,-0.4327642 7.7e-6,-0.1168504 -0.0561,-0.2076346 -0.115255,-0.3026379 0.027491,-0.010603 0.067225,-0.031932 0.1011272,-0.034205 0.00196,-1.312e-4 0.00393,-5.672e-4 0.00595,-7.423e-4 z M 1.4946378,2.603206 c 0.030629,-0.00207 0.066127,0.031929 0.092948,0.044614 -0.059951,0.033212 -0.1044338,0.076836 -0.1070764,0.1784598 0,0.1436931 0.1762047,0.2231556 0.2847919,0.1338444 0.029026,-0.023878 0.046087,-0.054633 0.062461,-0.087743 0.1015401,0.073047 0.053773,0.1574134 -0.046102,0.2052287 C 1.6910474,3.1209955 1.5783328,3.1132418 1.4946368,3.0575362 1.3821378,2.9826521 1.3474448,2.8312141 1.3987145,2.7095383 1.4137397,2.673859 1.4506334,2.6061815 1.4946378,2.603206 Z m 1.2730115,0.00967 c 0.050011,6.358e-4 0.091844,0.05189 0.1130244,0.12046 0.032728,0.1059852 0.00562,0.2241068 -0.077333,0.3004072 -0.078445,0.072157 -0.2036226,0.092206 -0.301894,0.052049 C 2.3857965,3.0385327 2.3376646,2.9493167 2.4479092,2.8649471 2.5227614,3.1169648 2.8905628,2.9403862 2.7572391,2.7333333 2.7374755,2.7026411 2.7109,2.6826597 2.6806507,2.663437 c 0.026568,-0.031223 0.051861,-0.046801 0.076588,-0.04982 0.0034,-4.149e-4 0.00709,-7.842e-4 0.010405,-7.424e-4 z"
           sodipodi:nodetypes="ccccccccccccccccccccccccccccscccccsccccccccscssccccccccccccscscsccc" />
        <path
           style="fill:#1a1a1a;fill-opacity:1;stroke-width:0.00319911"
           d="m 1.9114689,2.3731955 c -0.00594,-0.00401 -0.014068,-0.012132 -0.018068,-0.018068 l -0.00728,-0.01079 -0.00312,-0.013651 -6.3e-6,-0.1442867 -0.029586,-0.019762 C 1.7486022,2.0966284 1.6742033,1.9906008 1.6430887,1.8668888 1.5813403,1.6213759 1.7121314,1.3630617 1.9451928,1.2702318 c 0.1554016,-0.061897 0.3246891,-0.047747 0.464077,0.038791 0.1321441,0.082041 0.2213438,0.224176 0.2379975,0.3792375 0.014757,0.1373894 -0.026587,0.2750557 -0.1142112,0.3803099 -0.046587,0.055961 -0.1227792,0.115277 -0.1724346,0.1342435 -0.061261,-0.132702 0,0 -0.061261,-0.132702 0.085148,-0.046749 0.1144809,-0.089638 0.1570697,-0.1525167 0.028585,-0.042203 0.045632,-0.1049864 0.045632,-0.1633573 0,-0.057548 0.00738,-0.112041 -0.030551,-0.1823592 C 2.3723164,1.3903416 2.1546234,1.3324567 2.0088258,1.3902795 1.8547194,1.4513976 1.7442985,1.6427857 1.7816608,1.8182739 c 0.033676,0.1581729 0.1102488,0.2040298 0.1963781,0.2513187 0.043655,0.023968 0.042942,0.072808 0.042942,0.1453338 v 0.054488 c -0.00343,0.08085 -0.00137,0.011972 -0.00275,0.1558279 l -0.09598,-0.044759 z"
           id="path6231-0"
           sodipodi:nodetypes="cccccccssssccsscsssscccc" />
        <g
           id="path8586-7-9-88">
          <path
             style="color:#000000;fill:#1a1a1a;stroke-width:0.131533;-inkscape-stroke:none"
             d="m 3.3014522,1.7407056 -0.5291923,2.07e-5"
             id="path15197" />
          <path
             style="color:#000000;fill:#000000;-inkscape-stroke:none"
             d="M 2.7714844,1.6757812 V 1.8066406 H 3.3007813 V 1.6757812 Z"
             id="path15199" />
        </g>
        <g
           id="path8586-7-9-88-1">
          <path
             style="color:#000000;fill:#1a1a1a;stroke-width:0.131533;-inkscape-stroke:none"
             d="M 2.882136,0.96709325 2.5851298,1.2640995"
             id="path15191" />
          <path
             style="color:#000000;fill:#000000;-inkscape-stroke:none"
             d="m 2.8359375,0.91992188 -0.296875,0.29687502 0.091797,0.09375 0.296875,-0.296875 z"
             id="path15193" />
        </g>
        <g
           id="path8586-7-9-8-8-2">
          <path
             style="color:#000000;fill:#1a1a1a;stroke-width:0.131533;-inkscape-stroke:none"
             d="M 2.1411581,0.79374999 V 1.1044474"
             id="path15185" />
          <path
             style="color:#000000;fill:#000000;-inkscape-stroke:none"
             d="M 2.0761719,0.79296875 V 1.1035156 H 2.2070313 V 0.79296875 Z"
             id="path15187" />
        </g>
        <g
           id="path8586-7-9-8-9-6">
          <path
             style="color:#000000;fill:#1a1a1a;stroke-width:0.131533;-inkscape-stroke:none"
             d="M 0.96603785,1.7407263 H 1.4952299"
             id="path15179" />
          <path
             style="color:#000000;fill:#000000;-inkscape-stroke:none"
             d="M 0.96679688,1.6757812 V 1.8066406 H 1.4960937 V 1.6757812 Z"
             id="path15181" />
        </g>
        <g
           id="path8586-7-9-88-3">
          <path
             style="color:#000000;fill:#1a1a1a;stroke-width:0.131533;-inkscape-stroke:none"
             d="M 1.3834682,0.96715293 1.6803551,1.2640398"
             id="path15173" />
          <path
             style="color:#000000;fill:#000000;-inkscape-stroke:none"
             d="m 1.4296875,0.91992188 -0.091797,0.09375 0.296875,0.296875 0.091797,-0.09375 z"
             id="path15175" />
        </g>
      </g>
    </g>
  </g>
</svg>
